<svg width="32" height="32" viewBox="0 0 32 32" fill="none" xmlns="http://www.w3.org/2000/svg">
<g clip-path="url(#clip0_439_7)">
<path d="M31.0938 15.735C30.9745 7.45161 24.1627 0.83327 15.8793 0.952612C7.59594 1.07195 0.977605 7.88367 1.09695 16.1671C1.2048 23.6532 6.77895 29.7792 13.9653 30.8011L13.8143 20.3203L10.0062 20.3752L9.94369 16.0397L13.7519 15.9848L13.7043 12.6805C13.6501 8.92149 15.8594 6.81288 19.2853 6.76352C20.9263 6.73988 22.6469 7.00809 22.6469 7.00809L22.7001 10.6991L20.8089 10.7264C18.9456 10.7532 18.3813 11.9177 18.3984 13.1039L18.4389 15.9173L22.5986 15.8574L21.9961 20.2024L18.5014 20.2528L18.6524 30.7335C25.8063 29.5051 31.2017 23.2212 31.0938 15.735Z" fill="#1877F2"/>
<path d="M21.9961 20.2023L22.5986 15.8573L18.4389 15.9172L18.3984 13.1038C18.3813 11.9175 18.9457 10.7531 20.8089 10.7263L22.7001 10.699L22.6469 7.00798C22.6469 7.00798 20.9263 6.73977 19.2853 6.76342C15.8594 6.81277 13.6501 8.92138 13.7043 12.6804L13.7519 15.9847L9.94369 16.0396L10.0062 20.3751L13.8144 20.3202L13.9654 30.8009C14.7424 30.9113 15.5268 30.9609 16.3115 30.9494C17.0962 30.9383 17.8789 30.8661 18.6524 30.7334L18.5014 20.2527L21.9961 20.2023Z" fill="white"/>
</g>
<defs>
<clipPath id="clip0_439_7">
<rect width="30" height="30" fill="white" transform="translate(0.880859 1.1687) rotate(-0.825429)"/>
</clipPath>
</defs>
</svg>
