<svg width="31" height="31" viewBox="0 0 31 31" fill="none" xmlns="http://www.w3.org/2000/svg">
<path d="M27.2796 12.5807L26.2727 12.5804L26.2727 12.5285L15.0227 12.525L15.0212 17.525L22.0856 17.5272C21.054 20.4375 18.284 22.5261 15.0196 22.525C10.8777 22.5237 7.52067 19.1646 7.52197 15.0227C7.52326 10.8808 10.8824 7.52373 15.0243 7.52503C16.9362 7.52563 18.6753 8.24742 19.9993 9.42596L23.5361 5.89144C21.3042 3.81012 18.3184 2.52606 15.0259 2.52503C8.12275 2.52287 2.52413 8.11799 2.52197 15.0211C2.51981 21.9242 8.11493 27.5229 15.0181 27.525C21.9212 27.5272 27.5198 21.9321 27.522 15.0289C27.5222 14.1908 27.4362 13.3727 27.2796 12.5807Z" fill="#FFC107"/>
<path d="M3.96519 9.20348L8.07113 12.2166C9.18324 9.46574 11.8751 7.52408 15.0245 7.52507C16.9363 7.52567 18.6755 8.24746 19.9995 9.426L23.5362 5.89148C21.3044 3.81016 18.3185 2.5261 15.026 2.52507C10.2248 2.52356 6.06019 5.23289 3.96519 9.20348Z" fill="#FF3D00"/>
<path d="M15.0181 27.525C18.2468 27.526 21.181 26.2913 23.3997 24.2827L19.532 21.0077C18.2345 21.9938 16.6493 22.5268 15.0196 22.525C11.7684 22.524 9.00841 20.45 7.96932 17.5566L3.89208 20.6959C5.95957 24.7447 10.1599 27.5235 15.0181 27.525Z" fill="#4CAF50"/>
<path d="M27.2798 12.5807L26.2729 12.5804L26.2729 12.5285L15.0229 12.525L15.0214 17.525L22.0858 17.5272C21.5923 18.9123 20.7039 20.1225 19.5303 21.0083L19.5322 21.0071L23.3999 24.282C23.1261 24.5307 27.5202 21.2789 27.5222 15.0289C27.5224 14.1908 27.4364 13.3727 27.2798 12.5807Z" fill="#1976D2"/>
</svg>
