<svg width="87" height="95" viewBox="0 0 87 95" fill="none" xmlns="http://www.w3.org/2000/svg">
<ellipse cx="40.1278" cy="55" rx="40.1278" ry="40" fill="#3BF9ED"/>
<path d="M7.51455 22.7142C8.21583 21.8225 9.13937 20.6154 9.87896 19.7526C12.0939 17.3746 12.3813 17.0629 14.397 15.3048C14.9948 14.8408 15.7038 14.2825 16.3974 13.7569C11.2815 17.8531 10.6301 22.388 15.3244 25.1901C15.3167 25.1901 15.3167 25.1901 15.3167 25.1974C21.8811 28.9384 36.2668 28.13 47.6175 23.3378C58.6118 18.6978 62.67 12.0604 57.2437 8.11637C52.4804 7.27175 46.8013 7.17387 40.7925 7.93512L40.1679 6.96L40.6852 5.34325C44.2184 5.04238 47.5753 5.11487 50.4724 5.5825C51.1737 5.69487 52.0972 5.887 52.787 6.02475C54.1206 6.33287 54.8448 6.51775 55.7147 6.78238C56.6038 7.0325 57.3625 7.28263 58.6846 7.74663C59.9799 8.22875 60.5393 8.44625 61.5778 8.93563C62.7408 9.43756 63.8708 10.0053 64.9616 10.6357C73.6068 15.7796 68.2304 25.1647 52.9748 31.5955C37.7613 38.0045 18.3747 39.0122 9.68736 33.93C9.68352 33.9227 9.67203 33.9155 9.64903 33.9082H9.66436C4.92022 31.0662 4.42205 26.941 7.51455 22.7142ZM47.0963 58.6743L46.9737 52.896L42.6319 48.3285C28.2884 51.4025 14.1901 50.7428 6.3496 46.3746C6.32277 46.3456 6.25763 46.3166 6.2308 46.2876C1.79323 43.703 0.697247 40.368 1.03064 36.743C-0.00785962 42.0464 -0.0921659 43.9604 0.0572861 48.4989C0.241227 51.3409 1.97717 53.9618 5.46821 56.028L5.49504 56.057C13.8528 60.9725 31.2659 62.0383 47.0963 58.6743ZM65.203 65.2899C44.958 72.9713 19.6202 73.4244 8.61437 66.3158C9.80292 69.0634 11.4202 71.6269 13.4122 73.921C23.5136 80.446 46.7706 80.0291 65.3448 72.9785C76.2165 68.8569 83.0759 63.3722 84.877 58.232L85.3829 56.6841C86.5823 52.7619 86.8084 49.4958 87 46.5885C86.7816 52.8996 78.9219 60.0771 65.203 65.2899ZM20.513 80.0835C21.1492 80.6562 23.1495 82.9799 33.2854 85.5464C36.0254 86.1191 42.9232 87.957 55.6649 85.2854L55.7415 84.187L54.7337 82.6935C42.9117 85.3398 29.7791 84.4552 20.513 80.0835ZM49.7673 34.3759L60.5317 42.0935C60.5317 42.0935 62.8348 43.6631 60.662 44.7651C58.4968 45.8563 52.9364 48.5279 52.9364 48.5279L47.445 46.5885L44.6898 47.7485L49.5489 51.7396L49.5872 57.9492L52.4421 56.7494L54.3352 51.504C54.3352 51.504 60.1485 49.387 62.4554 48.5895C64.7738 47.8101 64.4634 50.4781 64.4634 50.4781L63.3214 63.2055L67.1152 61.6105L73.3615 44.4389C73.3615 44.4389 76.6725 42.9164 79.0024 41.5788C81.3285 40.2411 82.1256 38.0226 82.1256 38.0226C82.1256 38.0226 79.857 37.0983 77.2435 37.8414C74.63 38.5773 71.2232 39.8895 71.2232 39.8895L53.5496 32.7881L49.7673 34.3759ZM26.9931 9.95788L34.3009 15.4642L36.2975 15.1815L32.3197 10.2406C32.3197 10.2406 31.4537 9.21838 32.6186 8.9755C33.7913 8.729 36.7573 8.15625 36.7573 8.15625L38.9876 9.84188L40.4898 9.63163L38.7883 7.07237L39.685 4.234L38.2327 4.43338L36.5121 6.59387C36.5121 6.59387 33.4924 6.86212 32.3044 6.95638C31.1088 7.04338 31.6223 5.829 31.6223 5.829L33.9139 0L31.9059 0.279125L26.6176 7.56175C26.6176 7.56175 24.8548 7.86625 23.5787 8.21063C22.2988 8.55138 21.6244 9.48663 21.6244 9.48663C21.6244 9.48663 22.5632 10.2044 23.8853 10.179C25.2189 10.1536 26.9931 9.95788 26.9931 9.95788ZM63.1107 80.7106L58.3819 78.3725L57.2935 78.7314L60.0948 81.1021C60.0948 81.1021 60.6926 81.5843 60.0642 81.8416C59.4357 82.0954 57.8339 82.7189 57.8339 82.7189L56.5118 82.1606L55.7262 82.4289L56.826 83.5381L56.7187 85.1585L57.5388 84.8902L58.1519 83.5744C58.1519 83.5744 59.8151 83.1068 60.478 82.94C61.1371 82.7696 60.9877 83.5019 60.9877 83.5019L60.3631 87L61.4552 86.6411L63.5974 82.0156C63.5974 82.0156 64.5439 81.664 65.2222 81.3414C65.9004 81.0187 66.1687 80.4243 66.1687 80.4243C66.1687 80.4243 65.5671 80.1125 64.8236 80.2684C64.0764 80.417 63.1107 80.7106 63.1107 80.7106Z" fill="black"/>
</svg>
