<svg width="378" height="223" viewBox="0 0 378 223" fill="none" xmlns="http://www.w3.org/2000/svg">
<g clip-path="url(#clip0_260_5)">
<path d="M41.0617 156.51C39.4287 156.686 37.6473 156.949 35.7523 157.335C27.7175 158.971 27.5507 164.427 27.6211 165.678L27.5665 165.644C26.7586 166.94 26.2526 168.251 25.9468 169.489L25.5789 152.768C25.8168 152.272 26.0333 151.709 26.2137 151.133C26.8152 152.985 27.8011 154.735 28.651 154.619C29.7561 154.468 30.2379 151.216 30.0317 148.905C31.437 150.715 33.8021 152.651 34.6943 152.054C35.4073 151.577 34.9846 149.614 34.2062 147.829C35.828 148.806 37.6242 149.448 38.1816 148.828C38.9422 147.981 37.1197 145.092 35.4388 143.479C37.6887 143.689 40.5502 143.331 40.7378 142.307C40.8924 141.463 39.1894 140.398 37.3665 139.713C39.1974 139.23 40.9095 138.389 40.8527 137.557C40.7853 136.569 38.2434 135.906 36.0506 135.805C37.7046 134.511 39.2243 132.723 38.7596 131.914C38.3323 131.17 36.3446 131.458 34.5108 132.113C35.596 130.562 36.359 128.813 35.7779 128.215C35.0541 127.47 32.4852 128.756 30.732 130.178C31.0733 127.963 30.9008 125.166 29.9072 124.913C29.0759 124.702 27.8979 126.328 27.0902 128.1C26.7332 126.241 26.0105 124.475 25.1765 124.475C23.9883 124.475 23.0251 128.058 23.0251 130.392C23.0251 130.523 23.0286 130.648 23.0347 130.766C22.9154 130.628 22.7787 130.484 22.6229 130.332C20.9486 128.706 17.7077 126.902 16.88 127.754C16.2989 128.352 17.0619 130.101 18.1471 131.652C16.3133 130.997 14.3256 130.709 13.8984 131.453C13.3243 132.452 15.7783 134.947 17.773 136.157C17.6531 136.142 17.5271 136.13 17.3931 136.121C15.0646 135.962 11.4251 136.679 11.3442 137.864C11.2874 138.697 12.9995 139.538 14.8304 140.02C13.0076 140.706 11.3046 141.77 11.4591 142.614C11.6467 143.638 14.5082 143.996 16.7581 143.787C15.0773 145.399 13.2547 148.288 14.0153 149.135C14.5727 149.755 16.3689 149.113 17.9907 148.136C17.2124 149.921 16.7896 151.884 17.5026 152.361C18.4448 152.992 21.0288 150.798 22.3911 148.911C22.2523 151.22 22.8048 154.392 23.9011 154.517C24.3596 154.57 24.8454 154.081 25.2839 153.328L24.0421 171.301C23.7519 173.394 25.6085 174.76 25.7745 175.622L26.0423 187.794C25.74 186.927 25.3329 186.04 24.7841 185.159L24.7295 185.193C24.7999 183.942 24.633 178.487 16.5983 176.851C14.7033 176.465 12.9219 176.201 11.2888 176.025C9.36123 175.818 8.60931 178.457 10.3507 179.309C12.8726 180.543 15.2448 182.099 16.4813 183.94C19.6426 188.648 24.0105 185.927 24.6315 185.504C25.3252 186.659 25.78 187.822 26.0673 188.929L26.2095 195.393C26.1747 195.546 26.1505 195.631 26.1487 195.638L26.2153 195.657L26.5595 211.3L29.7526 211.275L28.6105 195.285C28.8024 194.423 29.3928 191.484 28.6105 188.433L27.4684 175.87C27.4655 175.86 27.5332 176.199 27.4684 175.87L25.9786 170.933C26.1952 169.406 26.698 167.688 27.7191 165.989C28.3401 166.411 32.708 169.133 35.8693 164.425C37.1057 162.583 39.478 161.028 41.9999 159.793C43.7413 158.941 42.9893 156.303 41.0617 156.51L41.0617 156.51ZM26.4756 193.52L26.4154 190.785C26.5368 191.819 26.5307 192.753 26.4756 193.52Z" fill="#F2F2F2"/>
<path d="M0 212.047C0 212.387 0.273827 212.661 0.614816 212.661H377.385C377.726 212.661 378 212.387 378 212.047C378 211.706 377.726 211.432 377.385 211.432H0.614816C0.273827 211.432 0 211.706 0 212.047Z" fill="#3F3D56"/>
<path d="M228.648 212.592C244.056 212.592 256.546 200.101 256.546 184.694C256.546 169.286 244.056 156.796 228.648 156.796C213.241 156.796 200.75 169.286 200.75 184.694C200.75 200.101 213.241 212.592 228.648 212.592Z" fill="#3F3D56"/>
<path d="M228.648 203.292C238.92 203.292 247.247 194.966 247.247 184.694C247.247 174.422 238.92 166.095 228.648 166.095C218.376 166.095 210.05 174.422 210.05 184.694C210.05 194.966 218.376 203.292 228.648 203.292Z" fill="white"/>
<path d="M228.648 195.285C234.497 195.285 239.239 190.543 239.239 184.694C239.239 178.845 234.497 174.103 228.648 174.103C222.799 174.103 218.057 178.845 218.057 184.694C218.057 190.543 222.799 195.285 228.648 195.285Z" fill="#3F3D56"/>
<path d="M67.4608 212.592C82.8684 212.592 95.3586 200.101 95.3586 184.694C95.3586 169.286 82.8684 156.796 67.4608 156.796C52.0533 156.796 39.563 169.286 39.563 184.694C39.563 200.101 52.0533 212.592 67.4608 212.592Z" fill="#3F3D56"/>
<path d="M67.4606 203.292C77.7323 203.292 86.0592 194.966 86.0592 184.694C86.0592 174.422 77.7323 166.095 67.4606 166.095C57.1889 166.095 48.8621 174.422 48.8621 184.694C48.8621 194.966 57.1889 203.292 67.4606 203.292Z" fill="white"/>
<path d="M266.812 171.426C263.178 162.268 250.479 134.282 227.866 125.02C227.692 124.948 227.509 124.9 227.323 124.873L154.786 114.483C153.59 114.312 152.478 115.129 152.285 116.321L151.013 124.173C150.926 124.712 151.039 125.264 151.335 125.723C155.019 131.439 178.628 170.228 140.822 170.228C103.609 170.228 92.595 143.17 90.9413 138.396C90.7851 137.945 90.7787 137.46 90.9225 137.005L102.384 100.711C102.587 100.066 102.475 99.4045 102.145 98.8761L107.184 89.5187L116.412 94.743L121.19 94.8009L137.5 103.325L140.822 97.9007L107.184 81.1226C107.184 81.1226 107.241 77.2357 96.3918 74.1359L79.3431 66.3865L77.2766 68.9696L82.4429 73.1026L82.9595 76.2024L86.5759 77.2357L93.8086 91.1846L91.7421 95.1813L94.2505 96.4043L93.53 96.2405C92.4927 96.0048 91.4342 96.5396 91.0088 97.5146L79.6105 123.636C79.4361 124.035 79.1476 124.375 78.7812 124.611L74.7209 127.231C74.3415 127.476 74.046 127.83 73.8739 128.248L69.2365 139.496C69.0919 139.847 69.0507 140.214 69.088 140.57C63.307 141.665 46.3129 146.396 36.9797 165.062L47.8289 173.845C47.8289 173.845 64.8352 162.841 92.9415 174.3C97.8265 181.904 104.954 188.214 115.243 188.809C142.371 190.377 187.318 191.927 192.484 185.727C196.266 181.189 198.897 178.355 200.036 177.162C200.437 176.742 200.984 176.499 201.565 176.481L264.825 174.46C266.361 174.411 267.379 172.854 266.812 171.426Z" fill="#5CF2E9"/>
<path d="M92.2587 90.1513C96.8239 90.1513 100.525 86.4505 100.525 81.8853C100.525 77.3201 96.8239 73.6193 92.2587 73.6193C87.6935 73.6193 83.9927 77.3201 83.9927 81.8853C83.9927 86.4505 87.6935 90.1513 92.2587 90.1513Z" fill="#3F3D56"/>
<path d="M224.636 125.051C224.538 125.051 224.44 125.049 224.341 125.046L155.228 122.37C152.169 122.252 149.55 120.305 148.554 117.41L147.608 114.657C146.837 112.413 147.172 110.008 148.529 108.061C149.885 106.113 152.024 104.965 154.397 104.91L225.803 103.269C228.014 103.218 230.143 104.165 231.586 105.869C233.029 107.572 233.618 109.808 233.2 112.001L231.853 119.07C231.185 122.577 228.175 125.051 224.636 125.051H224.636Z" fill="#3F3D56"/>
<path d="M67.4607 195.285C73.3099 195.285 78.0516 190.543 78.0516 184.694C78.0516 178.845 73.3099 174.103 67.4607 174.103C61.6116 174.103 56.8699 178.845 56.8699 184.694C56.8699 190.543 61.6116 195.285 67.4607 195.285Z" fill="#3F3D56"/>
<path d="M252.402 154.542C250.748 154.542 249.172 153.656 248.333 152.137L243.097 142.662C242.268 141.161 242.315 139.397 243.224 137.943C244.132 136.489 245.702 135.668 247.41 135.762L256.908 136.249C258.677 136.339 260.266 137.452 260.957 139.084L263.733 145.644C264.24 146.845 264.228 148.162 263.698 149.353C263.167 150.544 262.196 151.434 260.963 151.859L253.925 154.286C253.422 154.459 252.908 154.542 252.402 154.542Z" fill="#3F3D56"/>
<path d="M132.261 217.513C132.182 217.513 132.103 217.509 132.023 217.5L129.914 217.266C129.225 217.189 128.629 216.802 128.277 216.204C127.926 215.606 127.879 214.896 128.148 214.257L139.12 188.199L139.358 188.299L139.12 188.199C139.421 187.483 140.087 186.979 140.857 186.883C141.606 186.788 142.336 187.082 142.813 187.667C143.29 188.25 143.431 189.025 143.19 189.74L134.328 216.032C134.029 216.919 133.183 217.513 132.261 217.513Z" fill="#3F3D56"/>
<path d="M189.227 35.6679C189.227 35.6679 185.213 27.64 186.016 20.4148L172.657 27.3393L173.172 40.4847L189.227 35.6679Z" fill="#A0616A"/>
<path d="M180.937 31.0472C187.593 31.0472 192.988 25.6517 192.988 18.996C192.988 12.3404 187.593 6.94493 180.937 6.94493C174.281 6.94493 168.886 12.3404 168.886 18.996C168.886 25.6517 174.281 31.0472 180.937 31.0472Z" fill="#A0616A"/>
<path d="M193.247 208.245L185.893 208.244L182.395 179.879L193.249 179.88L193.247 208.245Z" fill="#A0616A"/>
<path d="M168.052 208.078C167.823 208.463 167.702 209.708 167.702 210.157C167.702 211.535 168.82 212.652 170.198 212.652H192.972C193.912 212.652 194.675 211.89 194.675 210.95V210.002C194.675 210.002 195.801 207.152 193.482 203.64C193.482 203.64 190.599 206.39 186.292 202.082L185.021 199.781L175.826 206.506L170.73 207.133C169.614 207.27 168.626 207.112 168.052 208.078H168.052Z" fill="#2F2E41"/>
<path d="M171.566 35.6679L189.228 33.2595L202.875 39.6819L203.678 89.4551C203.678 89.4551 170.106 93.4691 164.815 88.2509C159.524 83.0328 163.538 41.2875 163.538 41.2875L171.566 35.6679Z" fill="#E6E6E6"/>
<path d="M177.923 22.0661H174.683C174.683 22.0661 171.872 18.6061 172.25 20.7142C172.628 22.8224 171.116 25.0914 171.116 25.0914L168.847 24.3351C168.847 24.3351 164.309 5.25414 177.923 4.206C191.537 3.15786 194.562 13.7465 194.562 13.7465C194.562 13.7465 193.806 19.0408 192.293 17.5281C190.78 16.0155 182.461 15.2591 182.461 15.2591L177.923 22.0661V22.0661Z" fill="#2F2E41"/>
<path d="M163.39 152.085L156.664 155.059L141.991 130.534L151.917 126.144L163.39 152.085Z" fill="#A0616A"/>
<path d="M140.28 162.124C140.227 162.57 140.62 163.757 140.801 164.167C141.359 165.428 142.833 165.997 144.094 165.44L164.921 156.228C165.781 155.847 166.17 154.842 165.79 153.982L165.406 153.115C165.406 153.115 165.284 150.053 161.742 147.779C161.742 147.779 160.218 151.46 154.536 149.263L152.443 147.672L146.754 157.542L142.347 160.177C141.383 160.754 140.414 161.009 140.281 162.124L140.28 162.124H140.28Z" fill="#2F2E41"/>
<path d="M201.269 84.6384L203.678 91.9204V116.952L195.811 139.63L196.453 192.504H182.337L180.744 138.571L182.002 111.933L172.369 107.919L147.065 109.481L158.898 138.571L145.877 147.256C145.877 147.256 126.401 102.872 129.315 98.5719C132.229 94.2719 166.348 86.6864 166.348 86.6864C166.348 86.6864 201.269 85.4412 201.269 84.6384V84.6384Z" fill="#2F2E41"/>
<path d="M208.495 55.7377L212.376 62.0945C212.376 62.0945 217.863 83.6601 212.376 83.7478C206.889 83.8356 195.811 72.7576 195.811 72.7576L197.255 66.9769L201.269 68.5825L200.467 55.7377H208.495V55.7377Z" fill="#A0616A"/>
<path d="M196.453 39.5807C196.453 39.5807 209.297 37.3177 210.502 45.7249C211.706 54.1322 212.376 62.0945 212.376 62.0945L198.46 63.2474L196.453 39.5807V39.5807Z" fill="#E6E6E6"/>
<path d="M199.241 72.0506C200.402 70.4203 198.7 67.2159 195.439 64.8936C192.178 62.5712 188.594 62.0102 187.432 63.6406C186.271 65.271 187.973 68.4753 191.234 70.7977C194.495 73.12 198.079 73.681 199.241 72.0506Z" fill="#A0616A"/>
<path d="M305.058 156.51C303.425 156.686 301.643 156.949 299.748 157.335C291.714 158.971 291.547 164.427 291.617 165.678L291.563 165.644C290.755 166.94 290.249 168.251 289.943 169.489L289.575 152.768C289.813 152.272 290.029 151.709 290.21 151.133C290.811 152.985 291.797 154.735 292.647 154.619C293.752 154.468 294.234 151.216 294.028 148.905C295.433 150.715 297.798 152.651 298.69 152.054C299.403 151.577 298.981 149.614 298.202 147.829C299.824 148.806 301.62 149.448 302.178 148.828C302.938 147.981 301.116 145.092 299.435 143.479C301.685 143.689 304.546 143.331 304.734 142.307C304.888 141.463 303.185 140.398 301.363 139.713C303.194 139.23 304.906 138.389 304.849 137.557C304.781 136.569 302.24 135.906 300.047 135.805C301.701 134.511 303.22 132.723 302.756 131.914C302.328 131.17 300.341 131.458 298.507 132.113C299.592 130.562 300.355 128.813 299.774 128.215C299.05 127.47 296.481 128.756 294.728 130.178C295.069 127.963 294.897 125.166 293.903 124.913C293.072 124.702 291.894 126.328 291.086 128.1C290.729 126.241 290.007 124.475 289.173 124.475C287.984 124.475 287.021 128.058 287.021 130.392C287.021 130.523 287.025 130.648 287.031 130.766C286.912 130.628 286.775 130.484 286.619 130.332C284.945 128.706 281.704 126.902 280.876 127.754C280.295 128.352 281.058 130.101 282.143 131.652C280.309 130.997 278.322 130.709 277.894 131.453C277.32 132.452 279.774 134.947 281.769 136.157C281.649 136.142 281.523 136.13 281.389 136.121C279.061 135.962 275.421 136.679 275.34 137.864C275.284 138.697 276.996 139.538 278.826 140.02C277.004 140.706 275.301 141.77 275.455 142.614C275.643 143.638 278.504 143.996 280.754 143.787C279.073 145.399 277.251 148.288 278.011 149.135C278.569 149.755 280.365 149.113 281.987 148.136C281.208 149.921 280.786 151.884 281.499 152.361C282.441 152.992 285.025 150.798 286.387 148.911C286.248 151.22 286.801 154.392 287.897 154.517C288.356 154.57 288.842 154.081 289.28 153.328L288.038 171.301C287.748 173.394 289.605 174.76 289.771 175.622L290.038 187.794C289.736 186.927 289.329 186.04 288.78 185.159L288.726 185.193C288.796 183.942 288.629 178.487 280.594 176.851C278.699 176.465 276.918 176.201 275.285 176.025C273.357 175.818 272.605 178.457 274.347 179.309C276.869 180.543 279.241 182.099 280.477 183.94C283.639 188.648 288.007 185.927 288.628 185.504C289.321 186.659 289.776 187.822 290.063 188.929L290.206 195.393C290.171 195.546 290.147 195.631 290.145 195.638L290.211 195.657L290.556 211.3L293.749 211.275L292.607 195.285C292.799 194.423 293.389 191.484 292.607 188.433L291.464 175.87C291.529 176.199 291.462 175.86 291.464 175.87L289.975 170.933C290.191 169.406 290.694 167.688 291.715 165.989C292.336 166.411 296.704 169.133 299.865 164.425C301.102 162.583 303.474 161.028 305.996 159.793C307.737 158.941 306.985 156.302 305.058 156.51ZM290.472 193.52L290.412 190.785C290.533 191.819 290.527 192.753 290.472 193.52Z" fill="#F2F2F2"/>
<path d="M214.103 12.2525C216.861 11.2093 216.696 9.62923 220.419 7.5989C222.015 6.72825 223.289 6.0333 225.072 5.9369C228.218 5.76682 230.616 7.5861 232.385 8.9285C234.961 10.883 236.325 13.076 237.039 14.2469C238.235 16.2109 238.788 17.8497 239.366 19.5653C240.216 22.0888 240.541 23.9781 241.028 26.8781C241.753 31.2063 242.116 33.3704 241.692 35.1881C240.907 38.5586 239.178 38.7925 239.366 40.8389C239.682 44.2959 244.706 44.6168 245.349 48.1518C245.882 51.0838 243.108 54.613 240.03 55.797C238.162 56.5155 236.443 56.2702 231.72 54.7998C219.194 50.899 217.184 48.2301 213.106 49.4814C210.787 50.193 209.518 51.645 206.126 51.8082C203.956 51.9125 201.338 51.4695 201.14 50.4786C200.887 49.2181 204.831 48.4788 205.128 46.1573C205.441 43.7213 201.329 42.7347 201.14 39.8417C200.954 37.0077 204.812 36.6152 206.79 32.1965C207.785 29.974 207.675 26.9477 207.455 20.8949C207.285 16.224 206.833 14.4171 208.12 13.2497C209.568 11.9362 211.036 13.4127 214.103 12.2525L214.103 12.2525Z" fill="#2F2E41"/>
<path d="M267.877 209.353L273.428 208.153L271.442 186.174L263.25 187.944L267.877 209.353Z" fill="#A0616A"/>
<path d="M286.867 205.119C287.102 205.372 287.397 206.292 287.47 206.631C287.694 207.671 287.033 208.697 285.993 208.921L268.804 212.635C268.094 212.789 267.394 212.338 267.241 211.628L267.086 210.912C267.086 210.912 265.771 208.945 266.949 205.916C266.949 205.916 269.573 207.521 272.122 203.568L272.706 201.624L280.743 205.2L284.692 204.842C285.556 204.764 286.276 204.483 286.867 205.119L286.867 205.119Z" fill="#2F2E41"/>
<path d="M277.805 207.672L282.436 204.385L271.962 184.959L265.128 189.81L277.805 207.672Z" fill="#A0616A"/>
<path d="M293.597 196.307C293.913 196.447 294.546 197.177 294.746 197.459C295.362 198.327 295.158 199.531 294.29 200.147L279.948 210.325C279.356 210.745 278.535 210.605 278.115 210.013L277.691 209.416C277.691 209.416 275.708 208.125 275.599 204.877C275.599 204.877 278.644 205.32 279.431 200.682L279.203 198.666L287.999 198.791L291.489 196.908C292.252 196.496 292.804 195.955 293.597 196.307L293.597 196.307Z" fill="#2F2E41"/>
<path d="M211.096 99.0019C211.096 99.0019 202.461 110.742 219.731 123.941L254.991 112.674L242.398 86.409L231.245 80.2925L211.096 99.0019L211.096 99.0019Z" fill="#2F2E41"/>
<path d="M254.991 112.674L268.664 139.299L277.299 194.708L266.505 195.427L255.711 142.897L236.642 114.473L249.954 108.357" fill="#2F2E41"/>
<path d="M219.731 115.578V123.941L244.197 150.813C244.197 150.813 244.197 170.961 253.552 180.316L264.346 196.867L273.701 191.829L260.028 143.617L235.562 111.955L219.731 115.578Z" fill="#2F2E41"/>
<path d="M237.117 32.6656L232.508 50.2373L214.937 46.7806C214.937 46.7806 221.85 34.1059 220.122 28.3447L237.117 32.6656V32.6656Z" fill="#A0616A"/>
<path d="M229.599 35.984C236.994 35.984 242.989 29.9893 242.989 22.5944C242.989 15.1995 236.994 9.20478 229.599 9.20478C222.204 9.20478 216.21 15.1995 216.21 22.5944C216.21 29.9893 222.204 35.984 229.599 35.984Z" fill="#A0616A"/>
<path d="M223.689 35.3179L234.483 40.3551C234.483 40.3551 240.036 43.7491 240.138 46.0098C240.24 48.2706 239.52 59.0645 239.52 59.0645C239.52 59.0645 243.838 63.3821 240.959 72.0172L242.398 86.4091L210.017 103.679L212.895 73.4564L211.456 45.3922L223.689 35.3179L223.689 35.3179Z" fill="#3F3D56"/>
<path d="M214 117.209C215.264 120.108 217.784 121.807 219.63 121.002C221.475 120.198 221.946 117.195 220.681 114.295C220.192 113.129 219.431 112.098 218.461 111.287L212.951 99.0683L207.272 101.776L213.307 113.534C213.241 114.797 213.479 116.057 214 117.209H214Z" fill="#A0616A"/>
<path d="M219.731 47.1912C219.731 47.1912 211.816 42.154 208.937 47.9108C206.059 53.6675 199.583 83.1709 199.583 83.1709L208.937 111.235L217.572 107.637L210.017 77.4339L219.731 47.1912V47.1912Z" fill="#3F3D56"/>
<path d="M260.3 112.679C262.543 114.909 265.512 115.559 266.931 114.132C268.35 112.704 267.682 109.739 265.438 107.508C264.553 106.605 263.466 105.927 262.265 105.53L252.642 96.2008L248.36 100.81L258.302 109.518C258.706 110.716 259.391 111.8 260.3 112.679V112.679Z" fill="#A0616A"/>
<path d="M239.833 45.4746C239.833 45.4746 226.033 44.9102 225.478 51.3225C224.923 57.7347 234.357 86.3465 234.357 86.3465L253.393 108.99L260.095 102.464L241.944 77.1691L239.833 45.4746Z" fill="#3F3D56"/>
<path d="M224.615 34.4072C223.968 33.7387 221.195 33.0198 222.037 31.3391C222.313 30.7871 223.027 30.4104 223.609 30.4832C224.712 30.6213 225.005 32.3332 225.494 32.2681C226.139 32.1821 226.323 29.1058 226.401 25.8007C226.528 20.4292 226.251 19.8669 226.939 19.0424C227.572 18.2835 228.031 18.4908 235.113 17.4039C237.503 17.0369 238.282 16.8856 239.443 17.2252C241.649 17.8708 242.477 19.4837 243.348 19.1053C244.186 18.7409 244.387 16.8238 243.908 15.3569C243.222 13.2616 241.188 12.2073 239.768 11.4963C236.142 9.681 233.514 10.2713 233.105 8.93894C232.798 7.9406 234.23 7.4693 234.364 5.44238C234.507 3.26899 233 1.69584 232.904 1.59872C231.957 0.639849 230.87 0.344401 230.398 0.222224C229.736 0.0511381 228.96 -0.149468 228.048 0.166077C227.866 0.229188 226.741 0.63708 226.224 1.72124C225.731 2.7559 226.174 3.60269 225.799 3.78004C225.372 3.98136 224.827 2.8778 223.292 2.40354C222.968 2.30346 222.514 2.16788 221.933 2.22999C220.714 2.36036 219.946 3.25379 219.74 3.4942C219.204 4.11799 219.033 4.73244 218.693 5.96136C218.518 6.59389 218.316 7.34238 218.307 8.35026C218.301 9.02691 218.295 9.6425 218.542 10.3308C218.542 10.3308 218.943 11.4503 221.244 13.3577C221.244 13.3577 220.28 12.4019 219.806 12.524C218.994 12.7328 215.843 13.7962 214.295 16.8594C213.595 18.2447 213.139 18.0306 212.588 19.4048C212.459 19.7284 211.509 22.2023 212.554 24.7645C213.353 26.7242 214.407 26.4972 215.004 28.4908C215.29 29.4437 215.047 29.4868 215.435 32.1217C215.658 33.6364 217.626 32.4311 217.967 33.0776C218.197 33.5144 214.735 46.3484 216.615 48.1259C218.458 49.8674 226.525 36.3823 224.615 34.4072V34.4072Z" fill="#2F2E41"/>
<path d="M226.253 87.1945L214.726 52.2042C205.407 43.9925 195.298 63.7639 168.159 52.5564L176.695 92.1357C197.214 81.0437 214.875 76.6993 226.253 87.1945Z" fill="white"/>
<path d="M176.695 92.6524C176.621 92.6524 176.547 92.6368 176.479 92.605C176.331 92.5371 176.224 92.4037 176.19 92.2448L167.654 52.6653C167.613 52.4777 167.68 52.2829 167.828 52.1598C167.975 52.0367 168.178 52.0057 168.356 52.0788C183.773 58.4459 193.724 54.6552 200.989 51.8871C206.512 49.7825 210.874 48.1219 215.067 51.8165C215.137 51.8773 215.188 51.9552 215.217 52.0425L226.744 87.0329C226.818 87.2564 226.731 87.5016 226.533 87.6289C226.335 87.7558 226.075 87.7336 225.903 87.5742C215.899 78.3468 200.341 79.9398 176.94 92.5904C176.864 92.6317 176.78 92.6524 176.695 92.6524L176.695 92.6524ZM168.869 53.3997L177.055 91.3553C199.508 79.3309 214.886 77.4778 225.185 85.6031L214.28 52.5009C210.585 49.337 206.707 50.8148 201.357 52.8528C194.072 55.6279 184.15 59.4087 168.869 53.3997V53.3997Z" fill="#3F3D56"/>
<path d="M154.259 56.2544L150.378 62.6111C150.378 62.6111 144.891 84.1768 150.378 84.2645C155.864 84.3522 166.942 73.2743 166.942 73.2743L165.498 67.4935L161.484 69.0991L162.287 56.2544H154.259V56.2544Z" fill="#A0616A"/>
<path d="M166.301 40.0973C166.301 40.0973 153.456 37.8344 152.252 46.2416C151.048 54.6488 150.378 62.6111 150.378 62.6111L164.294 63.764L166.301 40.0973V40.0973Z" fill="#E6E6E6"/>
<path d="M171.519 71.3143C174.78 68.9919 176.482 65.7876 175.321 64.1572C174.16 62.5268 170.575 63.0878 167.314 65.4102C164.054 67.7326 162.352 70.9369 163.513 72.5673C164.674 74.1976 168.259 73.6367 171.519 71.3143Z" fill="#A0616A"/>
<path d="M302.55 215.997C304.958 215.997 306.91 214.046 306.91 211.638C306.91 209.231 304.958 207.279 302.55 207.279C300.143 207.279 298.191 209.231 298.191 211.638C298.191 214.046 300.143 215.997 302.55 215.997Z" fill="#3F3D56"/>
<path d="M308.363 222.763C310.771 222.763 312.722 220.811 312.722 218.403C312.722 215.996 310.771 214.044 308.363 214.044C305.955 214.044 304.004 215.996 304.004 218.403C304.004 220.811 305.955 222.763 308.363 222.763Z" fill="#3F3D56"/>
<path d="M351.956 222.763C354.364 222.763 356.315 220.811 356.315 218.403C356.315 215.996 354.364 214.044 351.956 214.044C349.549 214.044 347.597 215.996 347.597 218.403C347.597 220.811 349.549 222.763 351.956 222.763Z" fill="#3F3D56"/>
<path d="M314.749 153.15V105.803C314.749 100.502 319.182 99.1923 324.482 99.1923C327.08 99.1923 328.343 98.8903 330.165 100.742C331.987 102.594 334.017 103.363 333.974 105.961L333.211 152.421L314.749 153.15ZM324.999 102.292C320.268 102.292 315.782 101.072 315.782 105.803V152.076L332.194 151.427L332.941 105.943C332.979 103.625 329.208 103.945 327.582 102.292C325.956 100.639 327.317 102.292 324.999 102.292Z" fill="#3F3D56"/>
<path d="M301.774 152.581L301.11 204.311C301.102 204.977 301.261 205.634 301.572 206.222L306.459 215.454C307.178 216.811 308.615 217.634 310.15 217.566L353.063 215.673C355.26 215.576 356.961 213.715 356.861 211.519L354.171 152.451C354.075 150.327 352.324 148.654 350.198 148.654H305.75C303.574 148.654 301.802 150.404 301.774 152.581Z" fill="#CCF4F1"/>
<path d="M318.687 175.926L317.656 175.874L318.038 168.218C318.245 164.094 321.639 160.789 325.767 160.692L344.043 160.268C347.734 160.203 350.788 163.003 350.993 166.691L351.382 173.692L350.35 173.749L349.962 166.749C349.788 163.621 347.179 161.225 344.067 161.301L325.792 161.726C322.202 161.809 319.25 164.684 319.07 168.269L318.687 175.926Z" fill="#3F3D56"/>
<path d="M317.959 213.007L316.931 212.902L319.16 191.171C319.572 187.152 322.925 183.986 326.96 183.805L344.784 183.006C347.03 182.905 349.164 183.7 350.796 185.244C352.428 186.789 353.34 188.876 353.363 191.122L353.563 210.042L352.529 210.053L352.33 191.133C352.309 189.169 351.512 187.345 350.085 185.995C348.659 184.645 346.786 183.949 344.831 184.038L327.007 184.838C323.479 184.996 320.548 187.763 320.187 191.276L317.959 213.007Z" fill="#3F3D56"/>
<path d="M309.969 211.508L308.936 211.495L309.59 161.837C309.634 158.441 312.328 155.703 315.722 155.603L350.851 154.568L350.881 155.601L315.753 156.636C312.914 156.719 310.66 159.01 310.623 161.85L309.969 211.508Z" fill="#3F3D56"/>
<path d="M310.062 204.431H309.344V159.206C309.344 157.775 308.181 156.607 306.745 156.607H302.731V155.574H306.745C308.641 155.574 310.201 157.036 310.362 158.886C310.372 158.989 310.377 159.098 310.377 159.206V180.62L310.062 204.431Z" fill="#3F3D56"/>
</g>
<defs>
<clipPath id="clip0_260_5">
<rect width="378" height="222.763" fill="white"/>
</clipPath>
</defs>
</svg>
