<svg width="120" height="120" viewBox="0 0 120 120" fill="none" xmlns="http://www.w3.org/2000/svg">
<path d="M82.1576 99.5013L87.6233 91.6323L72.381 55.1112C72.381 55.1112 76.5543 50.7307 82.1137 43.7646C85.4931 39.2895 87.242 33.794 87.0706 28.1889L87.0702 28.216L86.591 27.805C81.0578 28.4842 75.9207 31.0272 72.0255 35.0153L71.9755 35.0684C65.9392 41.6208 62.2427 46.415 62.2427 46.415L23.8296 36.9121L16.8843 43.512L39.7039 53.6085L50.2087 59.9597C44.4471 66.0055 39.6568 72.9074 36.0082 80.4197L36.2793 79.912L26.6248 76.6344L22.5645 81.3678L33.6379 87.2105C33.3414 88.3819 33.1496 89.378 33.0048 90.3779L33.0285 90.2384L32.3917 90.9808C32.5798 90.9319 32.7717 90.8681 32.9595 90.8143C32.9398 91.0077 32.9033 91.2048 32.884 91.4031L33.5208 90.6607C34.3504 90.4127 35.3057 90.0714 36.2449 89.6797L36.4206 89.5974L43.8809 99.6523L47.9411 94.9189L43.232 85.8758C48.3643 82.359 53.5558 77.7185 58.1873 72.319C59.147 71.2001 60.071 70.0643 60.9566 68.9093L60.8336 69.0688L68.7124 78.4865L82.1625 99.501L82.1576 99.5013Z" fill="black"/>
</svg>
